<mxfile host="app.diagrams.net" modified="2024-02-09T09:00:32.421Z" agent="Mozilla/5.0 (Windows NT 10.0; Win64; x64) AppleWebKit/537.36 (KHTML, like Gecko) Chrome/121.0.0.0 Safari/537.36 Edg/121.0.0.0" version="23.1.2" etag="hqkkj2pXpseYtpjaqlkn" type="github">
  <diagram name="Page-1" id="i4YA9QL2Nl88acNB_wYK">
    <mxGraphModel>
      <root>
        <mxCell id="0" />
        <mxCell id="1" parent="0" />
      </root>
    </mxGraphModel>
  </diagram>
</mxfile>
